CSLSans-Bold.ufo
<glyph name="colon" format="2">
  <advance width="300"/>
  <unicode hex="003A"/>
  <outline>
    <contour>
      <point x="150" y="-11" type="qcurve" smooth="yes"/>
      <point x="104" y="-11"/>
      <point x="67" y="34"/>
      <point x="67" y="65" type="qcurve" smooth="yes"/>
      <point x="67" y="83" type="line" smooth="yes"/>
      <point x="67" y="113"/>
      <point x="104" y="159"/>
      <point x="150" y="159" type="qcurve" smooth="yes"/>
      <point x="195" y="159"/>
      <point x="233" y="114"/>
      <point x="233" y="83" type="qcurve" smooth="yes"/>
      <point x="233" y="65" type="line" smooth="yes"/>
      <point x="233" y="34"/>
      <point x="196" y="-11"/>
    </contour>
    <contour>
      <point x="150" y="362" type="qcurve" smooth="yes"/>
      <point x="104" y="362"/>
      <point x="67" y="407"/>
      <point x="67" y="438" type="qcurve" smooth="yes"/>
      <point x="67" y="456" type="line" smooth="yes"/>
      <point x="67" y="486"/>
      <point x="104" y="532"/>
      <point x="150" y="532" type="qcurve" smooth="yes"/>
      <point x="195" y="532"/>
      <point x="233" y="488"/>
      <point x="233" y="456" type="qcurve" smooth="yes"/>
      <point x="233" y="438" type="line" smooth="yes"/>
      <point x="233" y="407"/>
      <point x="196" y="362"/>
    </contour>
  </outline>
</glyph>
<glyph name="Y" format="2">
  <advance width="638"/>
  <unicode hex="0059"/>
  <outline>
    <contour>
      <point x="389" y="0" type="line"/>
      <point x="249" y="0" type="line"/>
      <point x="249" y="274" type="line"/>
      <point x="10" y="698" type="line"/>
      <point x="166" y="698" type="line"/>
      <point x="323" y="409" type="line"/>
      <point x="325" y="409" type="line"/>
      <point x="477" y="698" type="line"/>
      <point x="629" y="698" type="line"/>
      <point x="389" y="275" type="line"/>
    </contour>
  </outline>
</glyph>
<glyph name="i" format="2">
  <advance width="279"/>
  <unicode hex="0069"/>
  <outline>
    <contour>
      <point x="207" y="0" type="line"/>
      <point x="72" y="0" type="line"/>
      <point x="72" y="523" type="line"/>
      <point x="207" y="523" type="line"/>
    </contour>
    <contour>
      <point x="140" y="592" type="qcurve" smooth="yes"/>
      <point x="61" y="592"/>
      <point x="61" y="659" type="qcurve" smooth="yes"/>
      <point x="61" y="680" type="line" smooth="yes"/>
      <point x="61" y="708"/>
      <point x="97" y="747"/>
      <point x="140" y="747" type="qcurve" smooth="yes"/>
      <point x="218" y="747"/>
      <point x="218" y="680" type="qcurve" smooth="yes"/>
      <point x="218" y="659" type="line" smooth="yes"/>
      <point x="218" y="628"/>
      <point x="179" y="592"/>
    </contour>
  </outline>
</glyph>
<glyph name="j" format="2">
  <advance width="279"/>
  <unicode hex="006A"/>
  <outline>
    <contour>
      <point x="66" y="-200" type="qcurve" smooth="yes"/>
      <point x="-7" y="-200" type="line"/>
      <point x="-7" y="-94" type="line"/>
      <point x="72" y="-94" type="line"/>
      <point x="72" y="523" type="line"/>
      <point x="207" y="523" type="line"/>
      <point x="207" y="-61" type="line" smooth="yes"/>
      <point x="207" y="-200"/>
    </contour>
    <contour>
      <point x="140" y="592" type="qcurve" smooth="yes"/>
      <point x="61" y="592"/>
      <point x="61" y="659" type="qcurve" smooth="yes"/>
      <point x="61" y="680" type="line" smooth="yes"/>
      <point x="61" y="708"/>
      <point x="97" y="747"/>
      <point x="140" y="747" type="qcurve" smooth="yes"/>
      <point x="218" y="747"/>
      <point x="218" y="680" type="qcurve" smooth="yes"/>
      <point x="218" y="659" type="line" smooth="yes"/>
      <point x="218" y="628"/>
      <point x="179" y="592"/>
    </contour>
  </outline>
</glyph>
<glyph name="braceleft" format="2">
  <advance width="366"/>
  <unicode hex="007B"/>
  <outline>
    <contour>
      <point x="314" y="-138" type="line"/>
      <point x="210" y="-138" type="line" smooth="yes"/>
      <point x="172" y="-138"/>
      <point x="116" y="-90"/>
      <point x="116" y="-41" type="qcurve" smooth="yes"/>
      <point x="116" y="169" type="line" smooth="yes"/>
      <point x="116" y="218"/>
      <point x="57" y="258"/>
      <point x="19" y="258" type="qcurve"/>
      <point x="19" y="365" type="line"/>
      <point x="57" y="365"/>
      <point x="116" y="406"/>
      <point x="116" y="453" type="qcurve" smooth="yes"/>
      <point x="116" y="663" type="line" smooth="yes"/>
      <point x="116" y="760"/>
      <point x="228" y="760" type="qcurve" smooth="yes"/>
      <point x="314" y="760" type="line"/>
      <point x="314" y="664" type="line"/>
      <point x="240" y="664" type="line"/>
      <point x="240" y="442" type="line" smooth="yes"/>
      <point x="240" y="400"/>
      <point x="186" y="326"/>
      <point x="138" y="314" type="qcurve"/>
      <point x="138" y="308" type="line"/>
      <point x="194" y="293"/>
      <point x="240" y="210"/>
      <point x="240" y="162" type="qcurve" smooth="yes"/>
      <point x="240" y="-42" type="line"/>
      <point x="314" y="-42" type="line"/>
    </contour>
  </outline>
</glyph>
<glyph name="cent" format="2">
  <advance width="544"/>
  <unicode hex="00A2"/>
  <outline>
    <contour>
      <point x="245" y="98" type="qcurve"/>
      <point x="245" y="418" type="line"/>
      <point x="172" y="390"/>
      <point x="172" y="300" type="qcurve" smooth="yes"/>
      <point x="172" y="216" type="line" smooth="yes"/>
      <point x="172" y="125"/>
    </contour>
    <contour>
      <point x="339" y="-114" type="line"/>
      <point x="236" y="-114" type="line"/>
      <point x="236" y="-7" type="line"/>
      <point x="134" y="15"/>
      <point x="42" y="159"/>
      <point x="42" y="258" type="qcurve" smooth="yes"/>
      <point x="42" y="357"/>
      <point x="134" y="501"/>
      <point x="236" y="523" type="qcurve"/>
      <point x="236" y="630" type="line"/>
      <point x="339" y="630" type="line"/>
      <point x="339" y="525" type="line"/>
      <point x="459" y="502"/>
      <point x="500" y="403" type="qcurve"/>
      <point x="402" y="350" type="line"/>
      <point x="383" y="400"/>
      <point x="331" y="420" type="qcurve"/>
      <point x="331" y="96" type="line"/>
      <point x="386" y="112"/>
      <point x="412" y="168" type="qcurve"/>
      <point x="508" y="113" type="line"/>
      <point x="463" y="12"/>
      <point x="339" y="-9" type="qcurve"/>
    </contour>
  </outline>
</glyph>
<glyph name="ordfeminine" format="2">
  <advance width="419"/>
  <unicode hex="00AA"/>
  <outline>
    <contour>
      <point x="193" y="400" type="qcurve" smooth="yes"/>
      <point x="219" y="400"/>
      <point x="262" y="426"/>
      <point x="262" y="455" type="qcurve" smooth="yes"/>
      <point x="262" y="497" type="line"/>
      <point x="213" y="497" type="line" smooth="yes"/>
      <point x="176" y="497"/>
      <point x="138" y="478"/>
      <point x="138" y="452" type="qcurve" smooth="yes"/>
      <point x="138" y="446" type="line" smooth="yes"/>
      <point x="138" y="423"/>
      <point x="161" y="400"/>
    </contour>
    <contour>
      <point x="158" y="335" type="qcurve" smooth="yes"/>
      <point x="106" y="335"/>
      <point x="45" y="392"/>
      <point x="45" y="442" type="qcurve" smooth="yes"/>
      <point x="45" y="551"/>
      <point x="203" y="551" type="qcurve" smooth="yes"/>
      <point x="262" y="551" type="line"/>
      <point x="262" y="571" type="line" smooth="yes"/>
      <point x="262" y="606"/>
      <point x="231" y="639"/>
      <point x="196" y="639" type="qcurve" smooth="yes"/>
      <point x="138" y="639"/>
      <point x="108" y="592" type="qcurve"/>
      <point x="55" y="639" type="line"/>
      <point x="95" y="710"/>
      <point x="206" y="710" type="qcurve" smooth="yes"/>
      <point x="277" y="710"/>
      <point x="357" y="643"/>
      <point x="357" y="575" type="qcurve" smooth="yes"/>
      <point x="357" y="343" type="line"/>
      <point x="270" y="343" type="line"/>
      <point x="270" y="405" type="line"/>
      <point x="266" y="405" type="line"/>
      <point x="243" y="335"/>
    </contour>
  </outline>
</glyph>
<glyph name="macron" format="2">
  <advance width="600"/>
  <unicode hex="00AF"/>
  <outline>
    <contour>
      <point x="451" y="626" type="line"/>
      <point x="149" y="626" type="line"/>
      <point x="149" y="723" type="line"/>
      <point x="451" y="723" type="line"/>
    </contour>
  </outline>
</glyph>
<glyph name="periodcentered" format="2">
  <advance width="357"/>
  <unicode hex="00B7"/>
  <outline>
    <contour>
      <point x="179" y="217" type="qcurve" smooth="yes"/>
      <point x="132" y="217"/>
      <point x="93" y="261"/>
      <point x="93" y="293" type="qcurve" smooth="yes"/>
      <point x="93" y="314" type="line" smooth="yes"/>
      <point x="93" y="344"/>
      <point x="131" y="390"/>
      <point x="179" y="390" type="qcurve" smooth="yes"/>
      <point x="225" y="390"/>
      <point x="264" y="346"/>
      <point x="264" y="314" type="qcurve" smooth="yes"/>
      <point x="264" y="293" type="line" smooth="yes"/>
      <point x="264" y="262"/>
      <point x="226" y="217"/>
    </contour>
  </outline>
</glyph>
<glyph name="ordmasculine" format="2">
  <advance width="427"/>
  <unicode hex="00BA"/>
  <outline>
    <contour>
      <point x="214" y="407" type="qcurve" smooth="yes"/>
      <point x="256" y="407"/>
      <point x="289" y="458"/>
      <point x="289" y="502" type="qcurve" smooth="yes"/>
      <point x="289" y="551" type="line" smooth="yes"/>
      <point x="289" y="629"/>
      <point x="224" y="636" type="qcurve" smooth="yes"/>
      <point x="213" y="637" type="line"/>
      <point x="172" y="633"/>
      <point x="139" y="588"/>
      <point x="139" y="542" type="qcurve" smooth="yes"/>
      <point x="139" y="493" type="line" smooth="yes"/>
      <point x="139" y="407"/>
    </contour>
    <contour>
      <point x="214" y="334" type="qcurve" smooth="yes"/>
      <point x="152" y="334"/>
      <point x="75" y="383"/>
      <point x="39" y="469"/>
      <point x="39" y="522" type="qcurve" smooth="yes"/>
      <point x="39" y="575"/>
      <point x="75" y="660"/>
      <point x="152" y="710"/>
      <point x="214" y="710" type="qcurve" smooth="yes"/>
      <point x="275" y="710"/>
      <point x="352" y="661"/>
      <point x="388" y="576"/>
      <point x="388" y="522" type="qcurve" smooth="yes"/>
      <point x="388" y="440"/>
      <point x="302" y="334"/>
    </contour>
  </outline>
</glyph>
<glyph name="Edieresis" format="2">
  <advance width="602"/>
  <unicode hex="00CB"/>
  <outline>
    <contour>
      <point x="546" y="0" type="line"/>
      <point x="80" y="0" type="line"/>
      <point x="80" y="698" type="line"/>
      <point x="546" y="698" type="line"/>
      <point x="546" y="575" type="line"/>
      <point x="219" y="575" type="line"/>
      <point x="219" y="415" type="line"/>
      <point x="505" y="415" type="line"/>
      <point x="505" y="292" type="line"/>
      <point x="219" y="292" type="line"/>
      <point x="219" y="123" type="line"/>
      <point x="546" y="123" type="line"/>
    </contour>
    <contour>
      <point x="206" y="766" type="qcurve" smooth="yes"/>
      <point x="132" y="766"/>
      <point x="132" y="826" type="qcurve" smooth="yes"/>
      <point x="132" y="849" type="line" smooth="yes"/>
      <point x="132" y="907"/>
      <point x="206" y="909" type="qcurve"/>
      <point x="278" y="909"/>
      <point x="281" y="849" type="qcurve"/>
      <point x="281" y="826" type="line" smooth="yes"/>
      <point x="281" y="766"/>
    </contour>
    <contour>
      <point x="420" y="766" type="qcurve" smooth="yes"/>
      <point x="345" y="766"/>
      <point x="345" y="826" type="qcurve" smooth="yes"/>
      <point x="345" y="849" type="line" smooth="yes"/>
      <point x="345" y="907"/>
      <point x="420" y="909" type="qcurve"/>
      <point x="494" y="909"/>
      <point x="494" y="849" type="qcurve" smooth="yes"/>
      <point x="494" y="826" type="line" smooth="yes"/>
      <point x="494" y="766"/>
    </contour>
  </outline>
</glyph>
<glyph name="Odieresis" format="2">
  <advance width="713"/>
  <unicode hex="00D6"/>
  <outline>
    <contour>
      <point x="357" y="112" type="qcurve" smooth="yes"/>
      <point x="514" y="112"/>
      <point x="514" y="313" type="qcurve" smooth="yes"/>
      <point x="514" y="402" type="line" smooth="yes"/>
      <point x="514" y="498"/>
      <point x="424" y="586"/>
      <point x="357" y="586" type="qcurve" smooth="yes"/>
      <point x="199" y="586"/>
      <point x="199" y="385" type="qcurve" smooth="yes"/>
      <point x="199" y="296" type="line" smooth="yes"/>
      <point x="199" y="201"/>
      <point x="289" y="112"/>
    </contour>
    <contour>
      <point x="357" y="-12" type="qcurve" smooth="yes"/>
      <point x="267" y="-12"/>
      <point x="130" y="68"/>
      <point x="52" y="229"/>
      <point x="52" y="349" type="qcurve" smooth="yes"/>
      <point x="52" y="526"/>
      <point x="220" y="710"/>
      <point x="357" y="710" type="qcurve" smooth="yes"/>
      <point x="460" y="710"/>
      <point x="595" y="618"/>
      <point x="662" y="455"/>
      <point x="662" y="349" type="qcurve" smooth="yes"/>
      <point x="662" y="227"/>
      <point x="583" y="67"/>
      <point x="445" y="-12"/>
    </contour>
    <contour>
      <point x="250" y="766" type="qcurve" smooth="yes"/>
      <point x="176" y="766"/>
      <point x="176" y="826" type="qcurve" smooth="yes"/>
      <point x="176" y="849" type="line" smooth="yes"/>
      <point x="176" y="907"/>
      <point x="250" y="909" type="qcurve"/>
      <point x="324" y="909"/>
      <point x="324" y="849" type="qcurve" smooth="yes"/>
      <point x="324" y="826" type="line" smooth="yes"/>
      <point x="324" y="766"/>
    </contour>
    <contour>
      <point x="463" y="766" type="qcurve" smooth="yes"/>
      <point x="389" y="766"/>
      <point x="389" y="826" type="qcurve" smooth="yes"/>
      <point x="389" y="849" type="line" smooth="yes"/>
      <point x="389" y="907"/>
      <point x="463" y="909" type="qcurve"/>
      <point x="535" y="909"/>
      <point x="538" y="849" type="qcurve"/>
      <point x="538" y="826" type="line" smooth="yes"/>
      <point x="538" y="766"/>
    </contour>
  </outline>
</glyph>
<glyph name="Uacute" format="2">
  <advance width="691"/>
  <unicode hex="00DA"/>
  <outline>
    <contour>
      <point x="346" y="-12" type="qcurve" smooth="yes"/>
      <point x="198" y="-12"/>
      <point x="76" y="131"/>
      <point x="76" y="286" type="qcurve" smooth="yes"/>
      <point x="76" y="698" type="line"/>
      <point x="212" y="698" type="line"/>
      <point x="212" y="269" type="line" smooth="yes"/>
      <point x="212" y="185"/>
      <point x="277" y="112"/>
      <point x="346" y="112" type="qcurve" smooth="yes"/>
      <point x="417" y="112"/>
      <point x="480" y="189"/>
      <point x="480" y="269" type="qcurve" smooth="yes"/>
      <point x="480" y="698" type="line"/>
      <point x="615" y="698" type="line"/>
      <point x="615" y="286" type="line" smooth="yes"/>
      <point x="615" y="122"/>
      <point x="485" y="-12"/>
    </contour>
    <contour>
      <point x="360" y="743" type="line"/>
      <point x="279" y="782" type="line"/>
      <point x="375" y="972" type="line"/>
      <point x="489" y="916" type="line"/>
    </contour>
  </outline>
</glyph>
<glyph name="egrave" format="2">
  <advance width="560"/>
  <unicode hex="00E8"/>
  <outline>
    <contour>
      <point x="381" y="309" type="line"/>
      <point x="381" y="434"/>
      <point x="284" y="434" type="qcurve" smooth="yes"/>
      <point x="245" y="434"/>
      <point x="198" y="399"/>
      <point x="178" y="342"/>
      <point x="178" y="309" type="qcurve"/>
    </contour>
    <contour>
      <point x="286" y="-12" type="qcurve" smooth="yes"/>
      <point x="204" y="-12"/>
      <point x="94" y="58"/>
      <point x="38" y="182"/>
      <point x="38" y="262" type="qcurve" smooth="yes"/>
      <point x="38" y="339"/>
      <point x="91" y="463"/>
      <point x="200" y="535"/>
      <point x="282" y="535" type="qcurve" smooth="yes"/>
      <point x="370" y="535"/>
      <point x="475" y="459"/>
      <point x="522" y="337"/>
      <point x="522" y="270" type="qcurve" smooth="yes"/>
      <point x="522" y="227" type="line"/>
      <point x="178" y="227" type="line"/>
      <point x="178" y="95"/>
      <point x="301" y="95" type="qcurve" smooth="yes"/>
      <point x="381" y="95"/>
      <point x="433" y="163" type="qcurve"/>
      <point x="503" y="81" type="line"/>
      <point x="430" y="-12"/>
    </contour>
    <contour>
      <point x="272" y="580" type="line"/>
      <point x="144" y="753" type="line"/>
      <point x="257" y="809" type="line"/>
      <point x="354" y="620" type="line"/>
    </contour>
  </outline>
</glyph>
<glyph name="ntilde" format="2">
  <advance width="591"/>
  <unicode hex="00F1"/>
  <outline>
    <contour>
      <point x="524" y="0" type="line"/>
      <point x="389" y="0" type="line"/>
      <point x="389" y="317" type="line" smooth="yes"/>
      <point x="389" y="424"/>
      <point x="311" y="424" type="qcurve" smooth="yes"/>
      <point x="286" y="424"/>
      <point x="263" y="416" type="qcurve" smooth="yes"/>
      <point x="207" y="397"/>
      <point x="207" y="343" type="qcurve" smooth="yes"/>
      <point x="207" y="0" type="line"/>
      <point x="72" y="0" type="line"/>
      <point x="72" y="523" type="line"/>
      <point x="207" y="523" type="line"/>
      <point x="207" y="435" type="line"/>
      <point x="213" y="435" type="line"/>
      <point x="247" y="535"/>
      <point x="359" y="535" type="qcurve" smooth="yes"/>
      <point x="418" y="535"/>
      <point x="491" y="482"/>
      <point x="524" y="389"/>
      <point x="524" y="329" type="qcurve" smooth="yes"/>
    </contour>
    <contour>
      <point x="373" y="603" type="qcurve" smooth="yes"/>
      <point x="343" y="603"/>
      <point x="297" y="626"/>
      <point x="271" y="634" type="qcurve"/>
      <point x="242" y="647"/>
      <point x="219" y="647" type="qcurve" smooth="yes"/>
      <point x="201" y="647"/>
      <point x="175" y="633"/>
      <point x="161" y="621" type="qcurve"/>
      <point x="112" y="684" type="line"/>
      <point x="151" y="746"/>
      <point x="223" y="746" type="qcurve" smooth="yes"/>
      <point x="253" y="746"/>
      <point x="300" y="723"/>
      <point x="325" y="715" type="qcurve"/>
      <point x="354" y="702"/>
      <point x="377" y="702" type="qcurve" smooth="yes"/>
      <point x="410" y="702"/>
      <point x="435" y="728" type="qcurve"/>
      <point x="484" y="665" type="line"/>
      <point x="446" y="603"/>
    </contour>
  </outline>
</glyph>
<glyph name="oacute" format="2">
  <advance width="564"/>
  <unicode hex="00F3"/>
  <outline>
    <contour>
      <point x="282" y="96" type="qcurve" smooth="yes"/>
      <point x="342" y="96"/>
      <point x="385" y="172"/>
      <point x="385" y="235" type="qcurve" smooth="yes"/>
      <point x="385" y="312" type="line"/>
      <point x="380" y="427"/>
      <point x="282" y="427" type="qcurve" smooth="yes"/>
      <point x="221" y="427"/>
      <point x="179" y="350"/>
      <point x="179" y="288" type="qcurve" smooth="yes"/>
      <point x="179" y="211" type="line"/>
      <point x="182" y="96"/>
    </contour>
    <contour>
      <point x="282" y="-12" type="qcurve" smooth="yes"/>
      <point x="201" y="-12"/>
      <point x="92" y="60"/>
      <point x="38" y="184"/>
      <point x="38" y="262" type="qcurve" smooth="yes"/>
      <point x="38" y="395"/>
      <point x="174" y="535"/>
      <point x="282" y="535" type="qcurve" smooth="yes"/>
      <point x="397" y="535"/>
      <point x="526" y="387"/>
      <point x="526" y="262" type="qcurve" smooth="yes"/>
      <point x="526" y="138"/>
      <point x="398" y="-12"/>
    </contour>
    <contour>
      <point x="296" y="580" type="line"/>
      <point x="215" y="620" type="line"/>
      <point x="311" y="809" type="line"/>
      <point x="425" y="753" type="line"/>
    </contour>
  </outline>
</glyph>
<glyph name="udieresis" format="2">
  <advance width="591"/>
  <unicode hex="00FC"/>
  <outline>
    <contour>
      <point x="232" y="-12" type="qcurve" smooth="yes"/>
      <point x="172" y="-12"/>
      <point x="99" y="40"/>
      <point x="66" y="133"/>
      <point x="66" y="193" type="qcurve" smooth="yes"/>
      <point x="66" y="523" type="line"/>
      <point x="201" y="523" type="line"/>
      <point x="201" y="206" type="line" smooth="yes"/>
      <point x="201" y="99"/>
      <point x="285" y="99" type="qcurve" smooth="yes"/>
      <point x="321" y="99"/>
      <point x="384" y="138"/>
      <point x="384" y="180" type="qcurve" smooth="yes"/>
      <point x="384" y="523" type="line"/>
      <point x="519" y="523" type="line"/>
      <point x="519" y="0" type="line"/>
      <point x="384" y="0" type="line"/>
      <point x="384" y="87" type="line"/>
      <point x="379" y="87" type="line"/>
      <point x="349" y="-12"/>
    </contour>
    <contour>
      <point x="187" y="603" type="qcurve" smooth="yes"/>
      <point x="113" y="603"/>
      <point x="113" y="663" type="qcurve" smooth="yes"/>
      <point x="113" y="686" type="line" smooth="yes"/>
      <point x="113" y="745"/>
      <point x="187" y="745" type="qcurve" smooth="yes"/>
      <point x="261" y="745"/>
      <point x="261" y="686" type="qcurve" smooth="yes"/>
      <point x="261" y="663" type="line" smooth="yes"/>
      <point x="261" y="603"/>
    </contour>
    <contour>
      <point x="400" y="603" type="qcurve" smooth="yes"/>
      <point x="326" y="603"/>
      <point x="326" y="663" type="qcurve" smooth="yes"/>
      <point x="326" y="686" type="line" smooth="yes"/>
      <point x="326" y="745"/>
      <point x="400" y="745" type="qcurve" smooth="yes"/>
      <point x="474" y="745"/>
      <point x="474" y="686" type="qcurve" smooth="yes"/>
      <point x="474" y="663" type="line" smooth="yes"/>
      <point x="474" y="603"/>
    </contour>
  </outline>
</glyph>
<glyph name="Dcroat" format="2">
  <advance width="697"/>
  <unicode hex="0110"/>
  <outline>
    <contour>
      <point x="342" y="123" type="line" smooth="yes"/>
      <point x="412" y="123"/>
      <point x="498" y="203"/>
      <point x="498" y="294" type="qcurve" smooth="yes"/>
      <point x="498" y="404" type="line" smooth="yes"/>
      <point x="498" y="495"/>
      <point x="412" y="575"/>
      <point x="342" y="575" type="qcurve" smooth="yes"/>
      <point x="224" y="575" type="line"/>
      <point x="224" y="409" type="line"/>
      <point x="346" y="409" type="line"/>
      <point x="346" y="305" type="line"/>
      <point x="224" y="305" type="line"/>
      <point x="224" y="123" type="line"/>
    </contour>
    <contour>
      <point x="342" y="0" type="qcurve" smooth="yes"/>
      <point x="85" y="0" type="line"/>
      <point x="85" y="305" type="line"/>
      <point x="9" y="305" type="line"/>
      <point x="9" y="409" type="line"/>
      <point x="85" y="409" type="line"/>
      <point x="85" y="698" type="line"/>
      <point x="342" y="698" type="line" smooth="yes"/>
      <point x="446" y="698"/>
      <point x="580" y="609"/>
      <point x="645" y="452"/>
      <point x="645" y="349" type="qcurve" smooth="yes"/>
      <point x="645" y="231"/>
      <point x="567" y="76"/>
      <point x="430" y="0"/>
    </contour>
  </outline>
</glyph>
<glyph name="Emacron" format="2">
  <advance width="602"/>
  <unicode hex="0112"/>
  <outline>
    <contour>
      <point x="546" y="0" type="line"/>
      <point x="80" y="0" type="line"/>
      <point x="80" y="698" type="line"/>
      <point x="546" y="698" type="line"/>
      <point x="546" y="575" type="line"/>
      <point x="219" y="575" type="line"/>
      <point x="219" y="415" type="line"/>
      <point x="505" y="415" type="line"/>
      <point x="505" y="292" type="line"/>
      <point x="219" y="292" type="line"/>
      <point x="219" y="123" type="line"/>
      <point x="546" y="123" type="line"/>
    </contour>
    <contour>
      <point x="464" y="789" type="line"/>
      <point x="162" y="789" type="line"/>
      <point x="162" y="886" type="line"/>
      <point x="464" y="886" type="line"/>
    </contour>
  </outline>
</glyph>
<glyph name="Ebreve" format="2">
  <advance width="602"/>
  <unicode hex="0114"/>
  <outline>
    <contour>
      <point x="546" y="0" type="line"/>
      <point x="80" y="0" type="line"/>
      <point x="80" y="698" type="line"/>
      <point x="546" y="698" type="line"/>
      <point x="546" y="575" type="line"/>
      <point x="219" y="575" type="line"/>
      <point x="219" y="415" type="line"/>
      <point x="505" y="415" type="line"/>
      <point x="505" y="292" type="line"/>
      <point x="219" y="292" type="line"/>
      <point x="219" y="123" type="line"/>
      <point x="546" y="123" type="line"/>
    </contour>
    <contour>
      <point x="313" y="745" type="qcurve" smooth="yes"/>
      <point x="239" y="745"/>
      <point x="148" y="838"/>
      <point x="130" y="906" type="qcurve"/>
      <point x="204" y="945" type="line"/>
      <point x="215" y="925" type="line" smooth="yes"/>
      <point x="227" y="904"/>
      <point x="237" y="890" type="qcurve"/>
      <point x="267" y="840"/>
      <point x="313" y="840" type="qcurve" smooth="yes"/>
      <point x="350" y="840"/>
      <point x="391" y="888"/>
      <point x="416" y="935" type="qcurve"/>
      <point x="422" y="945" type="line"/>
      <point x="495" y="906" type="line"/>
      <point x="476" y="836"/>
      <point x="385" y="745"/>
    </contour>
  </outline>
</glyph>
<glyph name="ebreve" format="2">
  <advance width="560"/>
  <unicode hex="0115"/>
  <outline>
    <contour>
      <point x="381" y="309" type="line"/>
      <point x="381" y="434"/>
      <point x="284" y="434" type="qcurve" smooth="yes"/>
      <point x="245" y="434"/>
      <point x="198" y="399"/>
      <point x="178" y="342"/>
      <point x="178" y="309" type="qcurve"/>
    </contour>
    <contour>
      <point x="286" y="-12" type="qcurve" smooth="yes"/>
      <point x="204" y="-12"/>
      <point x="94" y="58"/>
      <point x="38" y="182"/>
      <point x="38" y="262" type="qcurve" smooth="yes"/>
      <point x="38" y="339"/>
      <point x="91" y="463"/>
      <point x="200" y="535"/>
      <point x="282" y="535" type="qcurve" smooth="yes"/>
      <point x="370" y="535"/>
      <point x="475" y="459"/>
      <point x="522" y="337"/>
      <point x="522" y="270" type="qcurve" smooth="yes"/>
      <point x="522" y="227" type="line"/>
      <point x="178" y="227" type="line"/>
      <point x="178" y="95"/>
      <point x="301" y="95" type="qcurve" smooth="yes"/>
      <point x="381" y="95"/>
      <point x="433" y="163" type="qcurve"/>
      <point x="503" y="81" type="line"/>
      <point x="430" y="-12"/>
    </contour>
    <contour>
      <point x="286" y="582" type="qcurve" smooth="yes"/>
      <point x="235" y="582"/>
      <point x="162" y="628"/>
      <point x="115" y="702"/>
      <point x="104" y="744" type="qcurve"/>
      <point x="178" y="782" type="line"/>
      <point x="187" y="766"/>
      <point x="197" y="749"/>
      <point x="206" y="734"/>
      <point x="213" y="724" type="qcurve" smooth="yes"/>
      <point x="245" y="678"/>
      <point x="286" y="678" type="qcurve" smooth="yes"/>
      <point x="319" y="678"/>
      <point x="360" y="722"/>
      <point x="385" y="764" type="qcurve" smooth="yes"/>
      <point x="396" y="782" type="line"/>
      <point x="469" y="744" type="line"/>
      <point x="447" y="671"/>
      <point x="354" y="582"/>
    </contour>
  </outline>
</glyph>
<glyph name="Gdotaccent" format="2">
  <advance width="668"/>
  <unicode hex="0120"/>
  <outline>
    <contour>
      <point x="41" y="349" type="qcurve" smooth="yes"/>
      <point x="41" y="438"/>
      <point x="87" y="573"/>
      <point x="169" y="664"/>
      <point x="284" y="710"/>
      <point x="353" y="710" type="qcurve" smooth="yes"/>
      <point x="408" y="710"/>
      <point x="493" y="683"/>
      <point x="558" y="638"/>
      <point x="605" y="578"/>
      <point x="622" y="544" type="qcurve"/>
      <point x="502" y="486" type="line"/>
      <point x="487" y="530"/>
      <point x="417" y="590"/>
      <point x="356" y="590" type="qcurve" smooth="yes"/>
      <point x="317" y="590"/>
      <point x="257" y="562"/>
      <point x="216" y="513"/>
      <point x="196" y="447"/>
      <point x="196" y="409" type="qcurve" smooth="yes"/>
      <point x="196" y="309" type="line" smooth="yes"/>
      <point x="196" y="264"/>
      <point x="212" y="189"/>
      <point x="248" y="137"/>
      <point x="308" y="108"/>
      <point x="352" y="108" type="qcurve" smooth="yes"/>
      <point x="380" y="108"/>
      <point x="432" y="124"/>
      <point x="471" y="156"/>
      <point x="494" y="206"/>
      <point x="494" y="240" type="qcurve" smooth="yes"/>
      <point x="494" y="266" type="line"/>
      <point x="323" y="266" type="line"/>
      <point x="323" y="387" type="line"/>
      <point x="634" y="387" type="line"/>
      <point x="634" y="268" type="line" smooth="yes"/>
      <point x="634" y="205"/>
      <point x="595" y="102"/>
      <point x="520" y="28"/>
      <point x="410" y="-12"/>
      <point x="339" y="-12" type="qcurve" smooth="yes"/>
      <point x="276" y="-12"/>
      <point x="167" y="34"/>
      <point x="87" y="126"/>
      <point x="41" y="260"/>
    </contour>
    <contour>
      <point x="342" y="755" type="qcurve" smooth="yes"/>
      <point x="297" y="755"/>
      <point x="257" y="793"/>
      <point x="257" y="823" type="qcurve" smooth="yes"/>
      <point x="257" y="851" type="line" smooth="yes"/>
      <point x="257" y="880"/>
      <point x="297" y="919"/>
      <point x="342" y="919" type="qcurve" smooth="yes"/>
      <point x="390" y="919"/>
      <point x="428" y="881"/>
      <point x="428" y="851" type="qcurve" smooth="yes"/>
      <point x="428" y="832" type="line" smooth="yes"/>
      <point x="428" y="816"/>
      <point x="421" y="788"/>
      <point x="402" y="767"/>
      <point x="368" y="755"/>
    </contour>
  </outline>
</glyph>
<glyph name="Gcommaaccent" format="2">
  <advance width="668"/>
  <unicode hex="0122"/>
  <outline>
    <contour>
      <point x="333" y="-44" type="qcurve" smooth="yes"/>
      <point x="363" y="-44"/>
      <point x="401" y="-74"/>
      <point x="401" y="-105" type="qcurve" smooth="yes"/>
      <point x="401" y="-119" type="line" smooth="yes"/>
      <point x="401" y="-162"/>
      <point x="364" y="-246"/>
      <point x="334" y="-272" type="qcurve"/>
      <point x="252" y="-272" type="line"/>
      <point x="277" y="-250"/>
      <point x="307" y="-204"/>
      <point x="313" y="-175" type="qcurve"/>
      <point x="287" y="-173"/>
      <point x="265" y="-137"/>
      <point x="265" y="-116" type="qcurve" smooth="yes"/>
      <point x="265" y="-105" type="line" smooth="yes"/>
      <point x="265" y="-76"/>
      <point x="301" y="-44"/>
    </contour>
    <contour>
      <point x="41" y="349" type="qcurve" smooth="yes"/>
      <point x="41" y="438"/>
      <point x="87" y="573"/>
      <point x="169" y="664"/>
      <point x="284" y="710"/>
      <point x="353" y="710" type="qcurve" smooth="yes"/>
      <point x="408" y="710"/>
      <point x="493" y="683"/>
      <point x="558" y="638"/>
      <point x="605" y="578"/>
      <point x="622" y="544" type="qcurve"/>
      <point x="502" y="486" type="line"/>
      <point x="487" y="530"/>
      <point x="417" y="590"/>
      <point x="356" y="590" type="qcurve" smooth="yes"/>
      <point x="317" y="590"/>
      <point x="257" y="562"/>
      <point x="216" y="513"/>
      <point x="196" y="447"/>
      <point x="196" y="409" type="qcurve" smooth="yes"/>
      <point x="196" y="309" type="line" smooth="yes"/>
      <point x="196" y="264"/>
      <point x="212" y="189"/>
      <point x="248" y="137"/>
      <point x="308" y="108"/>
      <point x="352" y="108" type="qcurve" smooth="yes"/>
      <point x="380" y="108"/>
      <point x="432" y="124"/>
      <point x="471" y="156"/>
      <point x="494" y="206"/>
      <point x="494" y="240" type="qcurve" smooth="yes"/>
      <point x="494" y="266" type="line"/>
      <point x="323" y="266" type="line"/>
      <point x="323" y="387" type="line"/>
      <point x="634" y="387" type="line"/>
      <point x="634" y="268" type="line" smooth="yes"/>
      <point x="634" y="205"/>
      <point x="595" y="102"/>
      <point x="520" y="28"/>
      <point x="410" y="-12"/>
      <point x="339" y="-12" type="qcurve" smooth="yes"/>
      <point x="276" y="-12"/>
      <point x="167" y="34"/>
      <point x="87" y="126"/>
      <point x="41" y="260"/>
    </contour>
  </outline>
</glyph>
<glyph name="Hbar" format="2">
  <advance width="730"/>
  <unicode hex="0126"/>
  <outline>
    <contour>
      <point x="506" y="415" type="line"/>
      <point x="506" y="508" type="line"/>
      <point x="224" y="508" type="line"/>
      <point x="224" y="415" type="line"/>
    </contour>
    <contour>
      <point x="645" y="0" type="line"/>
      <point x="506" y="0" type="line"/>
      <point x="506" y="292" type="line"/>
      <point x="224" y="292" type="line"/>
      <point x="224" y="0" type="line"/>
      <point x="85" y="0" type="line"/>
      <point x="85" y="508" type="line"/>
      <point x="12" y="508" type="line"/>
      <point x="12" y="613" type="line"/>
      <point x="85" y="613" type="line"/>
      <point x="85" y="698" type="line"/>
      <point x="224" y="698" type="line"/>
      <point x="224" y="613" type="line"/>
      <point x="506" y="613" type="line"/>
      <point x="506" y="698" type="line"/>
      <point x="645" y="698" type="line"/>
      <point x="645" y="613" type="line"/>
      <point x="718" y="613" type="line"/>
      <point x="718" y="508" type="line"/>
      <point x="645" y="508" type="line"/>
    </contour>
  </outline>
</glyph>
<glyph name="itilde" format="2">
  <advance width="279"/>
  <unicode hex="0129"/>
  <outline>
    <contour>
      <point x="207" y="0" type="line"/>
      <point x="72" y="0" type="line"/>
      <point x="72" y="523" type="line"/>
      <point x="207" y="523" type="line"/>
    </contour>
    <contour>
      <point x="216" y="603" type="qcurve" smooth="yes"/>
      <point x="186" y="603"/>
      <point x="139" y="626"/>
      <point x="114" y="634" type="qcurve"/>
      <point x="85" y="647"/>
      <point x="62" y="647" type="qcurve" smooth="yes"/>
      <point x="33" y="647"/>
      <point x="3" y="621" type="qcurve"/>
      <point x="-45" y="684" type="line"/>
      <point x="-6" y="746"/>
      <point x="65" y="746" type="qcurve" smooth="yes"/>
      <point x="96" y="746"/>
      <point x="120" y="735" type="qcurve"/>
      <point x="186" y="702"/>
      <point x="219" y="702" type="qcurve" smooth="yes"/>
      <point x="252" y="702"/>
      <point x="278" y="728" type="qcurve"/>
      <point x="326" y="665" type="line"/>
      <point x="288" y="603"/>
    </contour>
  </outline>
</glyph>
<glyph name="Lacute" format="2">
  <advance width="524"/>
  <unicode hex="0139"/>
  <outline>
    <contour>
      <point x="491" y="0" type="line"/>
      <point x="80" y="0" type="line"/>
      <point x="80" y="698" type="line"/>
      <point x="219" y="698" type="line"/>
      <point x="219" y="123" type="line"/>
      <point x="491" y="123" type="line"/>
    </contour>
    <contour>
      <point x="165" y="743" type="line"/>
      <point x="84" y="782" type="line"/>
      <point x="180" y="972" type="line"/>
      <point x="294" y="916" type="line"/>
    </contour>
  </outline>
</glyph>
<glyph name="lacute" format="2">
  <advance width="297"/>
  <unicode hex="013A"/>
  <outline>
    <contour>
      <point x="275" y="0" type="line"/>
      <point x="207" y="0" type="line" smooth="yes"/>
      <point x="72" y="0"/>
      <point x="72" y="132" type="qcurve" smooth="yes"/>
      <point x="72" y="740" type="line"/>
      <point x="207" y="740" type="line"/>
      <point x="207" y="106" type="line"/>
      <point x="275" y="106" type="line"/>
    </contour>
    <contour>
      <point x="155" y="780" type="line"/>
      <point x="74" y="820" type="line"/>
      <point x="170" y="1009" type="line"/>
      <point x="284" y="953" type="line"/>
    </contour>
  </outline>
</glyph>
<glyph name="Ldot" format="2">
  <advance width="524"/>
  <unicode hex="013F"/>
  <outline>
    <contour>
      <point x="409" y="317" type="qcurve" smooth="yes"/>
      <point x="327" y="317"/>
      <point x="327" y="382" type="qcurve" smooth="yes"/>
      <point x="327" y="408" type="line" smooth="yes"/>
      <point x="327" y="473"/>
      <point x="409" y="473" type="qcurve" smooth="yes"/>
      <point x="490" y="473"/>
      <point x="490" y="408" type="qcurve" smooth="yes"/>
      <point x="490" y="382" type="line" smooth="yes"/>
      <point x="490" y="317"/>
    </contour>
    <contour>
      <point x="491" y="0" type="line"/>
      <point x="80" y="0" type="line"/>
      <point x="80" y="698" type="line"/>
      <point x="219" y="698" type="line"/>
      <point x="219" y="123" type="line"/>
      <point x="491" y="123" type="line"/>
    </contour>
  </outline>
</glyph>
<glyph name="lslash" format="2">
  <advance width="307"/>
  <unicode hex="0142"/>
  <outline>
    <contour>
      <point x="280" y="0" type="line"/>
      <point x="212" y="0" type="line" smooth="yes"/>
      <point x="77" y="0"/>
      <point x="77" y="145" type="qcurve" smooth="yes"/>
      <point x="77" y="301" type="line"/>
      <point x="2" y="276" type="line"/>
      <point x="2" y="377" type="line"/>
      <point x="77" y="402" type="line"/>
      <point x="77" y="740" type="line"/>
      <point x="212" y="740" type="line"/>
      <point x="212" y="446" type="line"/>
      <point x="316" y="480" type="line"/>
      <point x="316" y="379" type="line"/>
      <point x="212" y="345" type="line"/>
      <point x="212" y="106" type="line"/>
      <point x="280" y="106" type="line"/>
    </contour>
  </outline>
</glyph>
<glyph name="Nacute" format="2">
  <advance width="721"/>
  <unicode hex="0143"/>
  <outline>
    <contour>
      <point x="641" y="0" type="line"/>
      <point x="488" y="0" type="line"/>
      <point x="285" y="349" type="line"/>
      <point x="214" y="491" type="line"/>
      <point x="211" y="491" type="line"/>
      <point x="211" y="0" type="line"/>
      <point x="80" y="0" type="line"/>
      <point x="80" y="698" type="line"/>
      <point x="233" y="698" type="line"/>
      <point x="436" y="349" type="line"/>
      <point x="506" y="207" type="line"/>
      <point x="509" y="207" type="line"/>
      <point x="509" y="698" type="line"/>
      <point x="641" y="698" type="line"/>
    </contour>
    <contour>
      <point x="374" y="743" type="line"/>
      <point x="293" y="782" type="line"/>
      <point x="389" y="972" type="line"/>
      <point x="503" y="916" type="line"/>
    </contour>
  </outline>
</glyph>
<glyph name="Ncommaaccent" format="2">
  <advance width="721"/>
  <unicode hex="0145"/>
  <outline>
    <contour>
      <point x="359" y="-269" type="qcurve"/>
      <point x="280" y="-269" type="line"/>
      <point x="327" y="-230"/>
      <point x="339" y="-174" type="qcurve"/>
      <point x="312" y="-171"/>
      <point x="292" y="-135"/>
      <point x="292" y="-108" type="qcurve"/>
      <point x="296" y="-47"/>
      <point x="359" y="-47" type="qcurve" smooth="yes"/>
      <point x="425" y="-47"/>
      <point x="425" y="-106" type="qcurve" smooth="yes"/>
      <point x="425" y="-211"/>
    </contour>
    <contour>
      <point x="641" y="0" type="line"/>
      <point x="488" y="0" type="line"/>
      <point x="276" y="362"/>
      <point x="251" y="416" type="qcurve"/>
      <point x="214" y="491" type="line"/>
      <point x="211" y="491" type="line"/>
      <point x="211" y="0" type="line"/>
      <point x="80" y="0" type="line"/>
      <point x="80" y="698" type="line"/>
      <point x="233" y="698" type="line"/>
      <point x="421" y="375" type="line"/>
      <point x="506" y="207" type="line"/>
      <point x="509" y="207" type="line"/>
      <point x="509" y="698" type="line"/>
      <point x="641" y="698" type="line"/>
    </contour>
  </outline>
</glyph>
<glyph name="Eng" format="2">
  <advance width="721"/>
  <unicode hex="014A"/>
  <outline>
    <contour>
      <point x="499" y="-200" type="qcurve" smooth="yes"/>
      <point x="425" y="-200" type="line"/>
      <point x="425" y="-93" type="line"/>
      <point x="509" y="-93" type="line"/>
      <point x="509" y="0" type="line"/>
      <point x="488" y="0" type="line"/>
      <point x="285" y="349" type="line"/>
      <point x="214" y="491" type="line"/>
      <point x="211" y="491" type="line"/>
      <point x="211" y="0" type="line"/>
      <point x="80" y="0" type="line"/>
      <point x="80" y="698" type="line"/>
      <point x="233" y="698" type="line"/>
      <point x="436" y="349" type="line"/>
      <point x="506" y="207" type="line"/>
      <point x="509" y="207" type="line"/>
      <point x="509" y="698" type="line"/>
      <point x="641" y="698" type="line"/>
      <point x="641" y="-60" type="line" smooth="yes"/>
      <point x="641" y="-200"/>
    </contour>
  </outline>
</glyph>
<glyph name="Tcaron" format="2">
  <advance width="582"/>
  <unicode hex="0164"/>
  <outline>
    <contour>
      <point x="360" y="0" type="line"/>
      <point x="221" y="0" type="line"/>
      <point x="221" y="575" type="line"/>
      <point x="26" y="575" type="line"/>
      <point x="26" y="698" type="line"/>
      <point x="556" y="698" type="line"/>
      <point x="556" y="575" type="line"/>
      <point x="360" y="575" type="line"/>
    </contour>
    <contour>
      <point x="351" y="752" type="line"/>
      <point x="232" y="752" type="line"/>
      <point x="104" y="908" type="line"/>
      <point x="171" y="961" type="line"/>
      <point x="292" y="845" type="line"/>
      <point x="412" y="961" type="line"/>
      <point x="479" y="908" type="line"/>
    </contour>
  </outline>
</glyph>
<glyph name="wcircumflex" format="2">
  <advance width="827"/>
  <unicode hex="0175"/>
  <outline>
    <contour>
      <point x="662" y="0" type="line"/>
      <point x="518" y="0" type="line"/>
      <point x="496" y="74"/>
      <point x="414" y="366" type="qcurve"/>
      <point x="411" y="366" type="line"/>
      <point x="378" y="240" type="line"/>
      <point x="308" y="0" type="line"/>
      <point x="167" y="0" type="line"/>
      <point x="21" y="523" type="line"/>
      <point x="152" y="523" type="line"/>
      <point x="243" y="137" type="line"/>
      <point x="247" y="137" type="line"/>
      <point x="296" y="321"/>
      <point x="314" y="383" type="qcurve" smooth="yes"/>
      <point x="354" y="523" type="line"/>
      <point x="477" y="523" type="line"/>
      <point x="586" y="137" type="line"/>
      <point x="589" y="137" type="line"/>
      <point x="602" y="196" type="line"/>
      <point x="681" y="523" type="line"/>
      <point x="806" y="523" type="line"/>
    </contour>
    <contour>
      <point x="534" y="580" type="line"/>
      <point x="414" y="696" type="line"/>
      <point x="294" y="580" type="line"/>
      <point x="226" y="633" type="line"/>
      <point x="354" y="789" type="line"/>
      <point x="474" y="789" type="line"/>
      <point x="602" y="633" type="line"/>
    </contour>
  </outline>
</glyph>
<glyph name="caron" format="2">
  <advance width="600"/>
  <unicode hex="02C7"/>
  <outline>
    <contour>
      <point x="360" y="589" type="line"/>
      <point x="240" y="589" type="line"/>
      <point x="112" y="745" type="line"/>
      <point x="180" y="798" type="line"/>
      <point x="300" y="683" type="line"/>
      <point x="420" y="798" type="line"/>
      <point x="488" y="745" type="line"/>
    </contour>
  </outline>
</glyph>
<glyph name="dotaccent" format="2">
  <advance width="600"/>
  <unicode hex="02D9"/>
  <outline>
    <contour>
      <point x="300" y="596" type="qcurve" smooth="yes"/>
      <point x="218" y="596"/>
      <point x="218" y="661" type="qcurve" smooth="yes"/>
      <point x="218" y="687" type="line" smooth="yes"/>
      <point x="218" y="752"/>
      <point x="298" y="752" type="qcurve" smooth="yes"/>
      <point x="382" y="752"/>
      <point x="382" y="687" type="qcurve" smooth="yes"/>
      <point x="382" y="661" type="line" smooth="yes"/>
      <point x="382" y="596"/>
    </contour>
  </outline>
</glyph>
<glyph name="Alphatonos" format="2">
  <advance width="677"/>
  <unicode hex="0386"/>
  <outline>
    <contour>
      <point x="337" y="575" type="line"/>
      <point x="332" y="575" type="line"/>
      <point x="244" y="291" type="line"/>
      <point x="425" y="291" type="line"/>
    </contour>
    <contour>
      <point x="513" y="0" type="line"/>
      <point x="458" y="176" type="line"/>
      <point x="212" y="176" type="line"/>
      <point x="157" y="0" type="line"/>
      <point x="21" y="0" type="line"/>
      <point x="254" y="698" type="line"/>
      <point x="422" y="698" type="line"/>
      <point x="653" y="0" type="line"/>
    </contour>
    <contour>
      <point x="125" y="580" type="line"/>
      <point x="39" y="593" type="line"/>
      <point x="73" y="807" type="line"/>
      <point x="193" y="789" type="line"/>
    </contour>
  </outline>
</glyph>
<glyph name="anoteleia" format="2">
  <advance width="320"/>
  <unicode hex="0387"/>
  <outline>
    <contour>
      <point x="160" y="365" type="qcurve" smooth="yes"/>
      <point x="118" y="365"/>
      <point x="79" y="407"/>
      <point x="79" y="439" type="qcurve" smooth="yes"/>
      <point x="79" y="457" type="line" smooth="yes"/>
      <point x="79" y="491"/>
      <point x="119" y="532"/>
      <point x="160" y="532" type="qcurve" smooth="yes"/>
      <point x="202" y="532"/>
      <point x="241" y="489"/>
      <point x="241" y="457" type="qcurve" smooth="yes"/>
      <point x="241" y="439" type="line" smooth="yes"/>
      <point x="241" y="406"/>
      <point x="201" y="365"/>
    </contour>
  </outline>
</glyph>
<glyph name="iotadieresistonos" format="2">
  <advance width="320"/>
  <unicode hex="0390"/>
  <outline>
    <contour>
      <point x="382" y="0" type="line"/>
      <point x="291" y="0" type="line" smooth="yes"/>
      <point x="216" y="0"/>
      <point x="153" y="77"/>
      <point x="153" y="149" type="qcurve" smooth="yes"/>
      <point x="153" y="523" type="line"/>
      <point x="284" y="523" type="line"/>
      <point x="284" y="104" type="line"/>
      <point x="382" y="104" type="line"/>
    </contour>
    <contour>
      <point x="212" y="580" type="line"/>
      <point x="152" y="599" type="line"/>
      <point x="179" y="807" type="line"/>
      <point x="271" y="782" type="line"/>
    </contour>
    <contour>
      <point x="72" y="608" type="qcurve" smooth="yes"/>
      <point x="48" y="608"/>
      <point x="18" y="631"/>
      <point x="14" y="651" type="qcurve" smooth="yes"/>
      <point x="11" y="665"/>
      <point x="11" y="696"/>
      <point x="23" y="723"/>
      <point x="46" y="740"/>
      <point x="67" y="740" type="qcurve" smooth="yes"/>
      <point x="92" y="740"/>
      <point x="122" y="716"/>
      <point x="126" y="697" type="qcurve"/>
      <point x="128" y="686"/>
      <point x="128" y="656"/>
      <point x="118" y="628"/>
      <point x="94" y="608"/>
    </contour>
    <contour>
      <point x="340" y="608" type="qcurve" smooth="yes"/>
      <point x="315" y="608"/>
      <point x="286" y="631"/>
      <point x="282" y="651" type="qcurve" smooth="yes"/>
      <point x="279" y="665"/>
      <point x="279" y="696"/>
      <point x="291" y="723"/>
      <point x="314" y="740"/>
      <point x="335" y="740" type="qcurve" smooth="yes"/>
      <point x="360" y="740"/>
      <point x="390" y="716"/>
      <point x="394" y="697" type="qcurve"/>
      <point x="396" y="686"/>
      <point x="396" y="656"/>
      <point x="386" y="628"/>
      <point x="362" y="608"/>
    </contour>
  </outline>
</glyph>
<glyph name="Alpha" format="2">
  <advance width="677"/>
  <unicode hex="0391"/>
  <outline>
    <contour>
      <point x="337" y="575" type="line"/>
      <point x="332" y="575" type="line"/>
      <point x="244" y="291" type="line"/>
      <point x="425" y="291" type="line"/>
    </contour>
    <contour>
      <point x="513" y="0" type="line"/>
      <point x="458" y="176" type="line"/>
      <point x="212" y="176" type="line"/>
      <point x="157" y="0" type="line"/>
      <point x="21" y="0" type="line"/>
      <point x="254" y="698" type="line"/>
      <point x="422" y="698" type="line"/>
      <point x="653" y="0" type="line"/>
    </contour>
  </outline>
</glyph>
<glyph name="Epsilon" format="2">
  <advance width="602"/>
  <unicode hex="0395"/>
  <outline>
    <contour>
      <point x="80" y="0" type="line"/>
      <point x="80" y="698" type="line"/>
      <point x="543" y="698" type="line"/>
      <point x="543" y="578" type="line"/>
      <point x="215" y="578" type="line"/>
      <point x="215" y="412" type="line"/>
      <point x="503" y="412" type="line"/>
      <point x="503" y="293" type="line"/>
      <point x="215" y="293" type="line"/>
      <point x="215" y="120" type="line"/>
      <point x="543" y="120" type="line"/>
      <point x="543" y="0" type="line"/>
    </contour>
  </outline>
</glyph>
<glyph name="Sigma" format="2">
  <advance width="600"/>
  <unicode hex="03A3"/>
  <outline>
    <contour>
      <point x="43" y="0" type="line"/>
      <point x="43" y="120" type="line"/>
      <point x="271" y="350" type="line"/>
      <point x="52" y="578" type="line"/>
      <point x="52" y="698" type="line"/>
      <point x="546" y="698" type="line"/>
      <point x="546" y="579" type="line"/>
      <point x="218" y="579" type="line"/>
      <point x="434" y="355" type="line"/>
      <point x="201" y="119" type="line"/>
      <point x="546" y="119" type="line"/>
      <point x="546" y="0" type="line"/>
    </contour>
  </outline>
</glyph>
<glyph name="upsilon" format="2">
  <advance width="578"/>
  <unicode hex="03C5"/>
  <outline>
    <contour>
      <point x="195" y="216" type="line" smooth="yes"/>
      <point x="195" y="153"/>
      <point x="238" y="93"/>
      <point x="289" y="93" type="qcurve" smooth="yes"/>
      <point x="319" y="93"/>
      <point x="355" y="112"/>
      <point x="376" y="151"/>
      <point x="383" y="210"/>
      <point x="383" y="250" type="qcurve" smooth="yes"/>
      <point x="383" y="523" type="line"/>
      <point x="514" y="523" type="line"/>
      <point x="514" y="241" type="line" smooth="yes"/>
      <point x="514" y="-12"/>
      <point x="289" y="-12" type="qcurve" smooth="yes"/>
      <point x="64" y="-12"/>
      <point x="64" y="241" type="qcurve" smooth="yes"/>
      <point x="64" y="523" type="line"/>
      <point x="195" y="523" type="line"/>
    </contour>
  </outline>
</glyph>
<glyph name="phi" format="2">
  <advance width="758"/>
  <unicode hex="03C6"/>
  <outline>
    <contour>
      <point x="439" y="92" type="line"/>
      <point x="467" y="92"/>
      <point x="517" y="106"/>
      <point x="554" y="137"/>
      <point x="576" y="188"/>
      <point x="576" y="226" type="qcurve" smooth="yes"/>
      <point x="576" y="288" type="line" smooth="yes"/>
      <point x="576" y="318"/>
      <point x="572" y="370"/>
      <point x="559" y="409"/>
      <point x="531" y="431"/>
      <point x="507" y="431" type="qcurve" smooth="yes"/>
      <point x="469" y="431"/>
      <point x="439" y="371"/>
      <point x="439" y="301" type="qcurve" smooth="yes"/>
    </contour>
    <contour>
      <point x="310" y="-12" type="line"/>
      <point x="252" y="-12"/>
      <point x="155" y="24"/>
      <point x="84" y="93"/>
      <point x="45" y="195"/>
      <point x="45" y="261" type="qcurve" smooth="yes"/>
      <point x="45" y="357"/>
      <point x="108" y="497"/>
      <point x="178" y="535" type="qcurve"/>
      <point x="260" y="454" type="line"/>
      <point x="218" y="424"/>
      <point x="182" y="345"/>
      <point x="182" y="291" type="qcurve" smooth="yes"/>
      <point x="182" y="245" type="line" smooth="yes"/>
      <point x="182" y="174"/>
      <point x="240" y="92"/>
      <point x="310" y="92" type="qcurve"/>
      <point x="310" y="275" type="line" smooth="yes"/>
      <point x="310" y="335"/>
      <point x="330" y="432"/>
      <point x="376" y="499"/>
      <point x="451" y="535"/>
      <point x="507" y="535" type="qcurve" smooth="yes"/>
      <point x="608" y="535"/>
      <point x="713" y="413"/>
      <point x="713" y="272" type="qcurve" smooth="yes"/>
      <point x="713" y="133"/>
      <point x="571" y="-12"/>
      <point x="439" y="-12" type="qcurve"/>
      <point x="439" y="-200" type="line"/>
      <point x="310" y="-200" type="line"/>
    </contour>
  </outline>
</glyph>
<glyph name="Dzhecyr" format="2">
  <advance width="706"/>
  <unicode hex="040F"/>
  <outline>
    <contour>
      <point x="418" y="-150" type="line"/>
      <point x="288" y="-150" type="line"/>
      <point x="288" y="0" type="line"/>
      <point x="80" y="0" type="line"/>
      <point x="80" y="698" type="line"/>
      <point x="219" y="698" type="line"/>
      <point x="219" y="123" type="line"/>
      <point x="487" y="123" type="line"/>
      <point x="487" y="698" type="line"/>
      <point x="626" y="698" type="line"/>
      <point x="626" y="0" type="line"/>
      <point x="418" y="0" type="line"/>
    </contour>
  </outline>
</glyph>
<glyph name="Hacyr" format="2">
  <advance width="662"/>
  <unicode hex="0425"/>
  <outline>
    <contour>
      <point x="644" y="0" type="line"/>
      <point x="482" y="0" type="line"/>
      <point x="325" y="264" type="line"/>
      <point x="322" y="264" type="line"/>
      <point x="169" y="0" type="line"/>
      <point x="18" y="0" type="line"/>
      <point x="242" y="360" type="line"/>
      <point x="28" y="698" type="line"/>
      <point x="190" y="698" type="line"/>
      <point x="334" y="454" type="line"/>
      <point x="336" y="454" type="line"/>
      <point x="482" y="698" type="line"/>
      <point x="633" y="698" type="line"/>
      <point x="416" y="358" type="line"/>
    </contour>
  </outline>
</glyph>
<glyph name="hardcyr" format="2">
  <advance width="630"/>
  <unicode hex="044A"/>
  <outline>
    <contour>
      <point x="395" y="98" type="line" smooth="yes"/>
      <point x="465" y="98"/>
      <point x="465" y="161" type="qcurve" smooth="yes"/>
      <point x="465" y="201" type="line" smooth="yes"/>
      <point x="465" y="263"/>
      <point x="395" y="263" type="qcurve" smooth="yes"/>
      <point x="284" y="263" type="line"/>
      <point x="284" y="98" type="line"/>
    </contour>
    <contour>
      <point x="423" y="0" type="qcurve" smooth="yes"/>
      <point x="149" y="0" type="line"/>
      <point x="149" y="417" type="line"/>
      <point x="20" y="417" type="line"/>
      <point x="20" y="523" type="line"/>
      <point x="284" y="523" type="line"/>
      <point x="284" y="361" type="line"/>
      <point x="423" y="361" type="line" smooth="yes"/>
      <point x="499" y="361"/>
      <point x="602" y="268"/>
      <point x="602" y="181" type="qcurve" smooth="yes"/>
      <point x="602" y="91"/>
      <point x="499" y="0"/>
    </contour>
  </outline>
</glyph>
<glyph name="softcyr" format="2">
  <advance width="553"/>
  <unicode hex="044C"/>
  <outline>
    <contour>
      <point x="319" y="98" type="line" smooth="yes"/>
      <point x="389" y="98"/>
      <point x="389" y="161" type="qcurve" smooth="yes"/>
      <point x="389" y="201" type="line" smooth="yes"/>
      <point x="389" y="263"/>
      <point x="319" y="263" type="qcurve" smooth="yes"/>
      <point x="207" y="263" type="line"/>
      <point x="207" y="98" type="line"/>
    </contour>
    <contour>
      <point x="347" y="0" type="qcurve" smooth="yes"/>
      <point x="72" y="0" type="line"/>
      <point x="72" y="523" type="line"/>
      <point x="207" y="523" type="line"/>
      <point x="207" y="361" type="line"/>
      <point x="347" y="361" type="line" smooth="yes"/>
      <point x="429" y="361"/>
      <point x="526" y="261"/>
      <point x="526" y="181" type="qcurve" smooth="yes"/>
      <point x="526" y="91"/>
      <point x="423" y="0"/>
    </contour>
  </outline>
</glyph>
<glyph name="yucyr" format="2">
  <advance width="815"/>
  <unicode hex="044E"/>
  <outline>
    <contour>
      <point x="538" y="96" type="qcurve" smooth="yes"/>
      <point x="590" y="96"/>
      <point x="635" y="159"/>
      <point x="635" y="230" type="qcurve" smooth="yes"/>
      <point x="635" y="315" type="line" smooth="yes"/>
      <point x="635" y="427"/>
      <point x="538" y="427" type="qcurve" smooth="yes"/>
      <point x="441" y="427"/>
      <point x="441" y="304" type="qcurve" smooth="yes"/>
      <point x="441" y="210" type="line" smooth="yes"/>
      <point x="441" y="96"/>
    </contour>
    <contour>
      <point x="538" y="-12" type="qcurve" smooth="yes"/>
      <point x="463" y="-12"/>
      <point x="364" y="45"/>
      <point x="309" y="146"/>
      <point x="302" y="213" type="qcurve"/>
      <point x="207" y="213" type="line"/>
      <point x="207" y="0" type="line"/>
      <point x="72" y="0" type="line"/>
      <point x="72" y="523" type="line"/>
      <point x="207" y="523" type="line"/>
      <point x="207" y="320" type="line"/>
      <point x="303" y="320" type="line"/>
      <point x="311" y="383"/>
      <point x="366" y="480"/>
      <point x="465" y="535"/>
      <point x="538" y="535" type="qcurve" smooth="yes"/>
      <point x="657" y="535"/>
      <point x="776" y="384"/>
      <point x="776" y="262" type="qcurve" smooth="yes"/>
      <point x="776" y="182"/>
      <point x="725" y="59"/>
      <point x="619" y="-12"/>
    </contour>
  </outline>
</glyph>
<glyph name="zhetailcyr" format="2">
  <advance width="855"/>
  <unicode hex="0497"/>
  <outline>
    <contour>
      <point x="842" y="-140" type="line"/>
      <point x="719" y="-140" type="line"/>
      <point x="719" y="2" type="line"/>
      <point x="663" y="7"/>
      <point x="596" y="144"/>
      <point x="562" y="213" type="qcurve"/>
      <point x="491" y="213" type="line"/>
      <point x="491" y="0" type="line"/>
      <point x="356" y="0" type="line"/>
      <point x="356" y="213" type="line"/>
      <point x="285" y="213" type="line"/>
      <point x="217" y="74" type="line"/>
      <point x="185" y="0"/>
      <point x="105" y="0" type="qcurve" smooth="yes"/>
      <point x="40" y="0" type="line"/>
      <point x="40" y="106" type="line"/>
      <point x="95" y="106" type="line"/>
      <point x="151" y="220" type="line" smooth="yes"/>
      <point x="172" y="261"/>
      <point x="210" y="267" type="qcurve"/>
      <point x="210" y="272" type="line"/>
      <point x="168" y="283"/>
      <point x="145" y="336" type="qcurve"/>
      <point x="106" y="417" type="line"/>
      <point x="51" y="417" type="line"/>
      <point x="51" y="523" type="line"/>
      <point x="109" y="523" type="line" smooth="yes"/>
      <point x="188" y="523"/>
      <point x="220" y="451" type="qcurve"/>
      <point x="285" y="319" type="line"/>
      <point x="356" y="319" type="line"/>
      <point x="356" y="523" type="line"/>
      <point x="491" y="523" type="line"/>
      <point x="491" y="319" type="line"/>
      <point x="562" y="319" type="line"/>
      <point x="627" y="451" type="line"/>
      <point x="658" y="523"/>
      <point x="738" y="523" type="qcurve" smooth="yes"/>
      <point x="797" y="523" type="line"/>
      <point x="797" y="417" type="line"/>
      <point x="741" y="417" type="line"/>
      <point x="695" y="321" type="line" smooth="yes"/>
      <point x="675" y="281"/>
      <point x="638" y="272" type="qcurve"/>
      <point x="638" y="267" type="line"/>
      <point x="676" y="261"/>
      <point x="697" y="220" type="qcurve" smooth="yes"/>
      <point x="753" y="106" type="line"/>
      <point x="842" y="106" type="line"/>
    </contour>
  </outline>
</glyph>
<glyph name="Chetailcyr" format="2">
  <advance width="730"/>
  <unicode hex="04B6"/>
  <outline>
    <contour>
      <point x="702" y="-150" type="line"/>
      <point x="571" y="-150" type="line"/>
      <point x="571" y="0" type="line"/>
      <point x="453" y="0" type="line"/>
      <point x="453" y="252" type="line"/>
      <point x="448" y="252" type="line"/>
      <point x="399" y="229"/>
      <point x="308" y="229" type="qcurve" smooth="yes"/>
      <point x="55" y="230"/>
      <point x="55" y="485" type="qcurve" smooth="yes"/>
      <point x="55" y="698" type="line"/>
      <point x="194" y="698" type="line"/>
      <point x="194" y="479" type="line" smooth="yes"/>
      <point x="194" y="350"/>
      <point x="323" y="350" type="qcurve" smooth="yes"/>
      <point x="412" y="350"/>
      <point x="453" y="369" type="qcurve"/>
      <point x="453" y="698" type="line"/>
      <point x="592" y="698" type="line"/>
      <point x="592" y="123" type="line"/>
      <point x="702" y="123" type="line"/>
    </contour>
  </outline>
</glyph>
<glyph name="Wgrave" format="2">
  <advance width="957"/>
  <unicode hex="1E80"/>
  <outline>
    <contour>
      <point x="765" y="0" type="line"/>
      <point x="607" y="0" type="line"/>
      <point x="524" y="349"/>
      <point x="479" y="545" type="qcurve"/>
      <point x="476" y="545" type="line"/>
      <point x="346" y="0" type="line"/>
      <point x="188" y="0" type="line"/>
      <point x="27" y="698" type="line"/>
      <point x="166" y="698" type="line"/>
      <point x="274" y="156" type="line"/>
      <point x="277" y="156" type="line"/>
      <point x="404" y="698" type="line"/>
      <point x="557" y="698" type="line"/>
      <point x="614" y="459"/>
      <point x="683" y="156" type="qcurve"/>
      <point x="686" y="156" type="line"/>
      <point x="797" y="698" type="line"/>
      <point x="930" y="698" type="line"/>
    </contour>
    <contour>
      <point x="465" y="743" type="line"/>
      <point x="336" y="916" type="line"/>
      <point x="450" y="972" type="line"/>
      <point x="546" y="782" type="line"/>
    </contour>
  </outline>
</glyph>
<glyph name="Abrevehoi" format="2">
  <advance width="677"/>
  <unicode hex="1EB2"/>
  <outline>
    <contour>
      <point x="424" y="292" type="line"/>
      <point x="338" y="571" type="line"/>
      <point x="333" y="571" type="line"/>
      <point x="248" y="292" type="line"/>
    </contour>
    <contour>
      <point x="657" y="0" type="line"/>
      <point x="512" y="0" type="line"/>
      <point x="458" y="174" type="line"/>
      <point x="215" y="174" type="line"/>
      <point x="162" y="0" type="line"/>
      <point x="21" y="0" type="line"/>
      <point x="253" y="698" type="line"/>
      <point x="426" y="698" type="line"/>
    </contour>
    <contour>
      <point x="349" y="877" type="qcurve"/>
      <point x="287" y="908" type="line"/>
      <point x="333" y="1008" type="line"/>
      <point x="214" y="1008" type="line"/>
      <point x="214" y="1101" type="line"/>
      <point x="342" y="1101" type="line" smooth="yes"/>
      <point x="434" y="1101"/>
      <point x="434" y="1032" type="qcurve" smooth="yes"/>
      <point x="434" y="999"/>
      <point x="392" y="929"/>
    </contour>
    <contour>
      <point x="336" y="737" type="qcurve" smooth="yes"/>
      <point x="261" y="737"/>
      <point x="166" y="822"/>
      <point x="147" y="882" type="qcurve"/>
      <point x="216" y="924" type="line"/>
      <point x="224" y="913"/>
      <point x="234" y="896"/>
      <point x="244" y="882"/>
      <point x="250" y="874" type="qcurve"/>
      <point x="285" y="830"/>
      <point x="336" y="830" type="qcurve" smooth="yes"/>
      <point x="396" y="830"/>
      <point x="436" y="893" type="qcurve" smooth="yes"/>
      <point x="456" y="924" type="line"/>
      <point x="525" y="882" type="line"/>
      <point x="505" y="821"/>
      <point x="413" y="737"/>
    </contour>
  </outline>
</glyph>
<glyph name="Etilde" format="2">
  <advance width="602"/>
  <unicode hex="1EBC"/>
  <outline>
    <contour>
      <point x="546" y="0" type="line"/>
      <point x="80" y="0" type="line"/>
      <point x="80" y="698" type="line"/>
      <point x="546" y="698" type="line"/>
      <point x="546" y="575" type="line"/>
      <point x="219" y="575" type="line"/>
      <point x="219" y="415" type="line"/>
      <point x="505" y="415" type="line"/>
      <point x="505" y="292" type="line"/>
      <point x="219" y="292" type="line"/>
      <point x="219" y="123" type="line"/>
      <point x="546" y="123" type="line"/>
    </contour>
    <contour>
      <point x="388" y="766" type="qcurve" smooth="yes"/>
      <point x="365" y="766"/>
      <point x="348" y="771" type="qcurve"/>
      <point x="339" y="774"/>
      <point x="303" y="790" type="qcurve" smooth="yes"/>
      <point x="283" y="799"/>
      <point x="253" y="809"/>
      <point x="234" y="809" type="qcurve" smooth="yes"/>
      <point x="201" y="809"/>
      <point x="176" y="784" type="qcurve"/>
      <point x="127" y="847" type="line"/>
      <point x="166" y="909"/>
      <point x="238" y="909" type="qcurve" smooth="yes"/>
      <point x="268" y="909"/>
      <point x="315" y="885"/>
      <point x="340" y="877" type="qcurve"/>
      <point x="367" y="865"/>
      <point x="392" y="865" type="qcurve" smooth="yes"/>
      <point x="425" y="865"/>
      <point x="450" y="890" type="qcurve"/>
      <point x="499" y="828" type="line"/>
      <point x="461" y="766"/>
    </contour>
  </outline>
</glyph>
<glyph name="Ecircumflexhoi" format="2">
  <advance width="602"/>
  <unicode hex="1EC2"/>
  <outline>
    <contour>
      <point x="546" y="0" type="line"/>
      <point x="80" y="0" type="line"/>
      <point x="80" y="698" type="line"/>
      <point x="546" y="698" type="line"/>
      <point x="546" y="575" type="line"/>
      <point x="219" y="575" type="line"/>
      <point x="219" y="415" type="line"/>
      <point x="505" y="415" type="line"/>
      <point x="505" y="292" type="line"/>
      <point x="219" y="292" type="line"/>
      <point x="219" y="123" type="line"/>
      <point x="546" y="123" type="line"/>
    </contour>
    <contour>
      <point x="488" y="877" type="line"/>
      <point x="427" y="909" type="line"/>
      <point x="473" y="1008" type="line"/>
      <point x="353" y="1008" type="line"/>
      <point x="353" y="1101" type="line"/>
      <point x="483" y="1101" type="line" smooth="yes"/>
      <point x="575" y="1101"/>
      <point x="575" y="1032" type="qcurve" smooth="yes"/>
      <point x="575" y="982"/>
      <point x="515" y="910" type="qcurve" smooth="yes"/>
    </contour>
    <contour>
      <point x="436" y="735" type="line"/>
      <point x="313" y="840" type="line"/>
      <point x="190" y="735" type="line"/>
      <point x="127" y="792" type="line"/>
      <point x="265" y="937" type="line"/>
      <point x="361" y="937" type="line"/>
      <point x="499" y="792" type="line"/>
    </contour>
  </outline>
</glyph>
<glyph name="ocircumflexhoi" format="2">
  <advance width="564"/>
  <unicode hex="1ED5"/>
  <outline>
    <contour>
      <point x="282" y="96" type="qcurve" smooth="yes"/>
      <point x="342" y="96"/>
      <point x="385" y="172"/>
      <point x="385" y="235" type="qcurve" smooth="yes"/>
      <point x="385" y="312" type="line"/>
      <point x="380" y="427"/>
      <point x="282" y="427" type="qcurve" smooth="yes"/>
      <point x="221" y="427"/>
      <point x="179" y="350"/>
      <point x="179" y="288" type="qcurve" smooth="yes"/>
      <point x="179" y="211" type="line"/>
      <point x="182" y="96"/>
    </contour>
    <contour>
      <point x="282" y="-12" type="qcurve" smooth="yes"/>
      <point x="201" y="-12"/>
      <point x="92" y="60"/>
      <point x="38" y="184"/>
      <point x="38" y="262" type="qcurve" smooth="yes"/>
      <point x="38" y="395"/>
      <point x="174" y="535"/>
      <point x="282" y="535" type="qcurve" smooth="yes"/>
      <point x="397" y="535"/>
      <point x="526" y="387"/>
      <point x="526" y="262" type="qcurve" smooth="yes"/>
      <point x="526" y="138"/>
      <point x="398" y="-12"/>
    </contour>
    <contour>
      <point x="456" y="715" type="line"/>
      <point x="395" y="747" type="line"/>
      <point x="441" y="845" type="line"/>
      <point x="321" y="845" type="line"/>
      <point x="321" y="938" type="line"/>
      <point x="451" y="938" type="line" smooth="yes"/>
      <point x="543" y="938"/>
      <point x="543" y="869" type="qcurve" smooth="yes"/>
      <point x="543" y="819"/>
      <point x="483" y="747" type="qcurve" smooth="yes"/>
    </contour>
    <contour>
      <point x="404" y="572" type="line"/>
      <point x="281" y="678" type="line"/>
      <point x="158" y="572" type="line"/>
      <point x="95" y="630" type="line"/>
      <point x="233" y="774" type="line"/>
      <point x="329" y="774" type="line"/>
      <point x="467" y="630" type="line"/>
    </contour>
  </outline>
</glyph>
<glyph name="Uhoi" format="2">
  <advance width="691"/>
  <unicode hex="1EE6"/>
  <outline>
    <contour>
      <point x="346" y="-12" type="qcurve" smooth="yes"/>
      <point x="198" y="-12"/>
      <point x="76" y="131"/>
      <point x="76" y="286" type="qcurve" smooth="yes"/>
      <point x="76" y="698" type="line"/>
      <point x="212" y="698" type="line"/>
      <point x="212" y="269" type="line" smooth="yes"/>
      <point x="212" y="185"/>
      <point x="277" y="112"/>
      <point x="346" y="112" type="qcurve" smooth="yes"/>
      <point x="417" y="112"/>
      <point x="480" y="189"/>
      <point x="480" y="269" type="qcurve" smooth="yes"/>
      <point x="480" y="698" type="line"/>
      <point x="615" y="698" type="line"/>
      <point x="615" y="286" type="line" smooth="yes"/>
      <point x="615" y="122"/>
      <point x="485" y="-12"/>
    </contour>
    <contour>
      <point x="379" y="733" type="line"/>
      <point x="310" y="766" type="line"/>
      <point x="354" y="860" type="line"/>
      <point x="233" y="860" type="line"/>
      <point x="233" y="958" type="line"/>
      <point x="369" y="958" type="line" smooth="yes"/>
      <point x="458" y="958"/>
      <point x="458" y="887" type="qcurve" smooth="yes"/>
      <point x="458" y="828"/>
      <point x="406" y="766" type="qcurve" smooth="yes"/>
    </contour>
  </outline>
</glyph>
<glyph name="Yhoi" format="2">
  <advance width="638"/>
  <unicode hex="1EF6"/>
  <outline>
    <contour>
      <point x="389" y="0" type="line"/>
      <point x="249" y="0" type="line"/>
      <point x="249" y="274" type="line"/>
      <point x="10" y="698" type="line"/>
      <point x="166" y="698" type="line"/>
      <point x="323" y="409" type="line"/>
      <point x="325" y="409" type="line"/>
      <point x="477" y="698" type="line"/>
      <point x="629" y="698" type="line"/>
      <point x="389" y="275" type="line"/>
    </contour>
    <contour>
      <point x="353" y="733" type="line"/>
      <point x="284" y="766" type="line"/>
      <point x="328" y="860" type="line"/>
      <point x="207" y="860" type="line"/>
      <point x="207" y="958" type="line"/>
      <point x="343" y="958" type="line" smooth="yes"/>
      <point x="432" y="958"/>
      <point x="432" y="887" type="qcurve" smooth="yes"/>
      <point x="432" y="828"/>
      <point x="380" y="766" type="qcurve" smooth="yes"/>
    </contour>
  </outline>
</glyph>
<glyph name="quotedblbase" format="2">
  <advance width="527"/>
  <unicode hex="201E"/>
  <outline>
    <contour>
      <point x="356" y="-117" type="qcurve"/>
      <point x="266" y="-117" type="line"/>
      <point x="333" y="-58"/>
      <point x="356" y="12" type="qcurve"/>
      <point x="298" y="25"/>
      <point x="298" y="82" type="qcurve" smooth="yes"/>
      <point x="298" y="103" type="line" smooth="yes"/>
      <point x="298" y="133"/>
      <point x="335" y="174"/>
      <point x="379" y="174" type="qcurve" smooth="yes"/>
      <point x="459" y="174"/>
      <point x="459" y="103" type="qcurve" smooth="yes"/>
      <point x="459" y="66"/>
      <point x="449" y="11"/>
      <point x="430" y="-25" type="qcurve" smooth="yes"/>
      <point x="401" y="-79"/>
    </contour>
    <contour>
      <point x="127" y="-117" type="qcurve"/>
      <point x="37" y="-117" type="line"/>
      <point x="104" y="-59"/>
      <point x="128" y="12" type="qcurve"/>
      <point x="69" y="24"/>
      <point x="69" y="82" type="qcurve" smooth="yes"/>
      <point x="69" y="103" type="line" smooth="yes"/>
      <point x="69" y="133"/>
      <point x="106" y="174"/>
      <point x="150" y="174" type="qcurve" smooth="yes"/>
      <point x="194" y="174"/>
      <point x="231" y="133"/>
      <point x="231" y="103" type="qcurve" smooth="yes"/>
      <point x="231" y="65"/>
      <point x="221" y="9"/>
      <point x="202" y="-26" type="qcurve" smooth="yes"/>
      <point x="172" y="-80"/>
    </contour>
  </outline>
</glyph>
<glyph name="guilsinglleft" format="2">
  <advance width="314"/>
  <unicode hex="2039"/>
  <outline>
    <contour>
      <point x="225" y="55" type="line"/>
      <point x="38" y="216" type="line"/>
      <point x="38" y="333" type="line"/>
      <point x="225" y="494" type="line"/>
      <point x="264" y="409" type="line"/>
      <point x="141" y="274" type="line"/>
      <point x="264" y="140" type="line"/>
    </contour>
  </outline>
</glyph>
<glyph name="four.inferior" format="2">
  <advance width="346"/>
  <unicode hex="2084"/>
  <outline>
    <contour>
      <point x="188" y="141" type="line"/>
      <point x="188" y="269" type="line"/>
      <point x="182" y="269" type="line"/>
      <point x="92" y="141" type="line"/>
    </contour>
    <contour>
      <point x="279" y="0" type="line"/>
      <point x="188" y="0" type="line"/>
      <point x="188" y="70" type="line"/>
      <point x="18" y="70" type="line"/>
      <point x="18" y="149" type="line"/>
      <point x="169" y="369" type="line"/>
      <point x="279" y="369" type="line"/>
      <point x="279" y="141" type="line"/>
      <point x="327" y="141" type="line"/>
      <point x="327" y="70" type="line"/>
      <point x="279" y="70" type="line"/>
    </contour>
  </outline>
</glyph>
<glyph name="hryvnia" format="2">
  <advance width="641"/>
  <unicode hex="20B4"/>
  <outline>
    <contour>
      <point x="331" y="-12" type="qcurve" smooth="yes"/>
      <point x="258" y="-12"/>
      <point x="158" y="45"/>
      <point x="107" y="139"/>
      <point x="107" y="195" type="qcurve" smooth="yes"/>
      <point x="107" y="217"/>
      <point x="111" y="232" type="qcurve"/>
      <point x="40" y="232" type="line"/>
      <point x="40" y="318" type="line"/>
      <point x="151" y="318" type="line"/>
      <point x="287" y="391" type="line"/>
      <point x="40" y="391" type="line"/>
      <point x="40" y="476" type="line"/>
      <point x="402" y="476" type="line"/>
      <point x="407" y="493"/>
      <point x="407" y="512" type="qcurve" smooth="yes"/>
      <point x="407" y="598"/>
      <point x="314" y="598" type="qcurve" smooth="yes"/>
      <point x="240" y="598"/>
      <point x="187" y="542" type="qcurve"/>
      <point x="117" y="626" type="line"/>
      <point x="196" y="710"/>
      <point x="320" y="710" type="qcurve" smooth="yes"/>
      <point x="388" y="710"/>
      <point x="483" y="658"/>
      <point x="532" y="573"/>
      <point x="532" y="525" type="qcurve" smooth="yes"/>
      <point x="532" y="501"/>
      <point x="527" y="476" type="qcurve"/>
      <point x="601" y="476" type="line"/>
      <point x="601" y="391" type="line"/>
      <point x="481" y="391" type="line"/>
      <point x="349" y="318" type="line"/>
      <point x="601" y="318" type="line"/>
      <point x="601" y="232" type="line"/>
      <point x="238" y="232" type="line"/>
      <point x="232" y="217"/>
      <point x="232" y="199" type="qcurve" smooth="yes"/>
      <point x="232" y="144"/>
      <point x="291" y="98"/>
      <point x="337" y="98" type="qcurve" smooth="yes"/>
      <point x="412" y="98"/>
      <point x="477" y="169" type="qcurve"/>
      <point x="548" y="84" type="line"/>
      <point x="468" y="-12"/>
    </contour>
  </outline>
</glyph>
<glyph name="bitcoin" format="2">
  <advance width="661"/>
  <unicode hex="20BF"/>
  <outline>
    <contour>
      <point x="408" y="133" type="line" smooth="yes"/>
      <point x="478" y="133"/>
      <point x="480" y="199" type="qcurve"/>
      <point x="480" y="231" type="line" smooth="yes"/>
      <point x="480" y="260"/>
      <point x="452" y="288"/>
      <point x="407" y="298"/>
      <point x="382" y="298" type="qcurve" smooth="yes"/>
      <point x="211" y="298" type="line"/>
      <point x="211" y="133" type="line"/>
    </contour>
    <contour>
      <point x="387" y="405" type="line" smooth="yes"/>
      <point x="455" y="405"/>
      <point x="455" y="469" type="qcurve" smooth="yes"/>
      <point x="455" y="501" type="line"/>
      <point x="454" y="538"/>
      <point x="409" y="565"/>
      <point x="359" y="565" type="qcurve" smooth="yes"/>
      <point x="211" y="565" type="line"/>
      <point x="211" y="405" type="line"/>
    </contour>
    <contour>
      <point x="452" y="-82" type="line"/>
      <point x="350" y="-82" type="line"/>
      <point x="350" y="20" type="line"/>
      <point x="284" y="20" type="line"/>
      <point x="284" y="-82" type="line"/>
      <point x="182" y="-82" type="line"/>
      <point x="182" y="20" type="line"/>
      <point x="80" y="20" type="line"/>
      <point x="80" y="678" type="line"/>
      <point x="182" y="678" type="line"/>
      <point x="182" y="780" type="line"/>
      <point x="284" y="780" type="line"/>
      <point x="284" y="678" type="line"/>
      <point x="350" y="678" type="line"/>
      <point x="350" y="780" type="line"/>
      <point x="452" y="780" type="line"/>
      <point x="452" y="675" type="line"/>
      <point x="514" y="665"/>
      <point x="591" y="584"/>
      <point x="591" y="509" type="qcurve" smooth="yes"/>
      <point x="591" y="380"/>
      <point x="466" y="368" type="qcurve"/>
      <point x="466" y="362" type="line"/>
      <point x="616" y="349"/>
      <point x="616" y="209" type="qcurve" smooth="yes"/>
      <point x="616" y="128"/>
      <point x="523" y="28"/>
      <point x="452" y="20" type="qcurve"/>
    </contour>
  </outline>
</glyph>
<glyph name="fivesixths" format="2">
  <advance width="833"/>
  <unicode hex="215A"/>
  <outline>
    <contour>
      <point x="655" y="64" type="line" smooth="yes"/>
      <point x="687" y="64"/>
      <point x="709" y="93"/>
      <point x="709" y="123" type="qcurve" smooth="yes"/>
      <point x="709" y="172"/>
      <point x="655" y="172" type="qcurve" smooth="yes"/>
      <point x="623" y="172"/>
      <point x="601" y="144"/>
      <point x="601" y="114" type="qcurve" smooth="yes"/>
      <point x="601" y="64"/>
      <point x="651" y="64" type="qcurve" smooth="yes"/>
    </contour>
    <contour>
      <point x="656" y="-6" type="qcurve" smooth="yes"/>
      <point x="601" y="-6"/>
      <point x="533" y="35"/>
      <point x="503" y="102"/>
      <point x="503" y="142" type="qcurve" smooth="yes"/>
      <point x="503" y="191"/>
      <point x="545" y="278"/>
      <point x="609" y="347"/>
      <point x="645" y="369" type="qcurve"/>
      <point x="777" y="369" type="line"/>
      <point x="617" y="268"/>
      <point x="602" y="187" type="qcurve"/>
      <point x="607" y="185" type="line"/>
      <point x="628" y="241"/>
      <point x="693" y="241" type="qcurve" smooth="yes"/>
      <point x="738" y="241"/>
      <point x="808" y="185"/>
      <point x="808" y="126" type="qcurve" smooth="yes"/>
      <point x="808" y="63"/>
      <point x="723" y="-6"/>
    </contour>
    <contour>
      <point x="173" y="323" type="qcurve" smooth="yes"/>
      <point x="68" y="323"/>
      <point x="26" y="396" type="qcurve"/>
      <point x="95" y="450" type="line"/>
      <point x="108" y="426"/>
      <point x="144" y="396"/>
      <point x="174" y="396" type="qcurve" smooth="yes"/>
      <point x="230" y="396"/>
      <point x="230" y="452" type="qcurve"/>
      <point x="227" y="501"/>
      <point x="176" y="501" type="qcurve" smooth="yes"/>
      <point x="138" y="501"/>
      <point x="117" y="477" type="qcurve"/>
      <point x="40" y="487" type="line"/>
      <point x="55" y="698" type="line"/>
      <point x="306" y="698" type="line"/>
      <point x="306" y="618" type="line"/>
      <point x="123" y="618" type="line"/>
      <point x="116" y="510" type="line"/>
      <point x="121" y="510" type="line"/>
      <point x="131" y="542"/>
      <point x="171" y="575"/>
      <point x="206" y="575" type="qcurve" smooth="yes"/>
      <point x="237" y="575"/>
      <point x="294" y="550"/>
      <point x="330" y="498"/>
      <point x="330" y="457" type="qcurve" smooth="yes"/>
      <point x="330" y="421"/>
      <point x="298" y="360"/>
      <point x="229" y="323"/>
    </contour>
    <contour>
      <point x="225" y="0" type="line"/>
      <point x="123" y="0" type="line"/>
      <point x="644" y="698" type="line"/>
      <point x="746" y="698" type="line"/>
    </contour>
  </outline>
</glyph>
<glyph name="arrowuprighttip" format="2">
  <advance width="885"/>
  <unicode hex="21B1"/>
  <outline>
    <contour>
      <point x="297" y="0" type="line"/>
      <point x="186" y="0" type="line"/>
      <point x="186" y="521" type="line"/>
      <point x="431" y="521" type="line"/>
      <point x="514" y="517" type="line"/>
      <point x="515" y="520" type="line"/>
      <point x="476" y="553" type="line"/>
      <point x="405" y="624" type="line"/>
      <point x="479" y="698" type="line"/>
      <point x="712" y="465" type="line"/>
      <point x="479" y="232" type="line"/>
      <point x="405" y="306" type="line"/>
      <point x="456" y="357"/>
      <point x="467" y="367" type="qcurve" smooth="yes"/>
      <point x="515" y="410" type="line"/>
      <point x="514" y="414" type="line"/>
      <point x="431" y="409" type="line"/>
      <point x="297" y="409" type="line"/>
    </contour>
  </outline>
</glyph>
<glyph name="product" format="2">
  <advance width="722"/>
  <unicode hex="220F"/>
  <outline>
    <contour>
      <point x="597" y="-200" type="line"/>
      <point x="458" y="-200" type="line"/>
      <point x="458" y="575" type="line"/>
      <point x="264" y="575" type="line"/>
      <point x="264" y="-200" type="line"/>
      <point x="125" y="-200" type="line"/>
      <point x="125" y="575" type="line"/>
      <point x="29" y="575" type="line"/>
      <point x="29" y="698" type="line"/>
      <point x="694" y="698" type="line"/>
      <point x="694" y="575" type="line"/>
      <point x="597" y="575" type="line"/>
    </contour>
  </outline>
</glyph>
<glyph name="lozenge" format="2">
  <advance width="600"/>
  <unicode hex="25CA"/>
  <outline>
    <contour>
      <point x="303" y="130" type="line"/>
      <point x="426" y="349" type="line"/>
      <point x="303" y="568" type="line"/>
      <point x="297" y="568" type="line"/>
      <point x="174" y="349" type="line"/>
      <point x="297" y="130" type="line"/>
    </contour>
    <contour>
      <point x="341" y="0" type="line"/>
      <point x="259" y="0" type="line"/>
      <point x="52" y="349" type="line"/>
      <point x="259" y="698" type="line"/>
      <point x="341" y="698" type="line"/>
      <point x="548" y="349" type="line"/>
    </contour>
  </outline>
</glyph>
<glyph name="check" format="2">
  <advance width="912"/>
  <unicode hex="2713"/>
  <outline>
    <contour>
      <point x="490" y="0" type="line"/>
      <point x="326" y="0" type="line"/>
      <point x="115" y="473" type="line"/>
      <point x="241" y="533" type="line"/>
      <point x="270" y="460" type="line"/>
      <point x="319" y="343" type="line"/>
      <point x="347" y="266"/>
      <point x="368" y="213" type="qcurve" smooth="yes"/>
      <point x="405" y="115" type="line"/>
      <point x="409" y="115" type="line"/>
      <point x="494" y="333" type="line"/>
      <point x="667" y="738" type="line"/>
      <point x="797" y="687" type="line"/>
    </contour>
  </outline>
</glyph>
<glyph name="ffi" format="2">
  <advance width="948"/>
  <unicode hex="FB03"/>
  <outline>
    <contour>
      <point x="808" y="592" type="qcurve" smooth="yes"/>
      <point x="729" y="592"/>
      <point x="729" y="657" type="qcurve" smooth="yes"/>
      <point x="729" y="680" type="line" smooth="yes"/>
      <point x="729" y="708"/>
      <point x="765" y="747"/>
      <point x="808" y="747" type="qcurve" smooth="yes"/>
      <point x="851" y="747"/>
      <point x="887" y="708"/>
      <point x="887" y="680" type="qcurve" smooth="yes"/>
      <point x="887" y="659" type="line" smooth="yes"/>
      <point x="887" y="630"/>
      <point x="850" y="592"/>
    </contour>
    <contour>
      <point x="233" y="0" type="line"/>
      <point x="98" y="0" type="line"/>
      <point x="98" y="417" type="line"/>
      <point x="23" y="417" type="line"/>
      <point x="23" y="523" type="line"/>
      <point x="98" y="523" type="line"/>
      <point x="98" y="593" type="line" smooth="yes"/>
      <point x="98" y="661"/>
      <point x="169" y="740"/>
      <point x="247" y="740" type="qcurve" smooth="yes"/>
      <point x="340" y="740" type="line"/>
      <point x="340" y="634" type="line"/>
      <point x="233" y="634" type="line"/>
      <point x="233" y="523" type="line"/>
      <point x="414" y="523" type="line"/>
      <point x="414" y="593" type="line"/>
      <point x="418" y="740"/>
      <point x="563" y="740" type="qcurve" smooth="yes"/>
      <point x="656" y="740" type="line"/>
      <point x="656" y="634" type="line"/>
      <point x="549" y="634" type="line"/>
      <point x="549" y="523" type="line"/>
      <point x="876" y="523" type="line"/>
      <point x="876" y="0" type="line"/>
      <point x="741" y="0" type="line"/>
      <point x="741" y="417" type="line"/>
      <point x="549" y="417" type="line"/>
      <point x="549" y="0" type="line"/>
      <point x="414" y="0" type="line"/>
      <point x="414" y="417" type="line"/>
      <point x="233" y="417" type="line"/>
    </contour>
  </outline>
</glyph>
<glyph name="five.sups" format="2">
  <advance width="355"/>
  <outline>
    <contour>
      <point x="173" y="-394" type="qcurve" smooth="yes"/>
      <point x="68" y="-394"/>
      <point x="26" y="-321" type="qcurve"/>
      <point x="95" y="-267" type="line"/>
      <point x="108" y="-291"/>
      <point x="144" y="-321"/>
      <point x="174" y="-321" type="qcurve" smooth="yes"/>
      <point x="230" y="-321"/>
      <point x="230" y="-265" type="qcurve"/>
      <point x="227" y="-216"/>
      <point x="176" y="-216" type="qcurve" smooth="yes"/>
      <point x="138" y="-216"/>
      <point x="117" y="-240" type="qcurve"/>
      <point x="40" y="-230" type="line"/>
      <point x="55" y="-19" type="line"/>
      <point x="306" y="-19" type="line"/>
      <point x="306" y="-99" type="line"/>
      <point x="123" y="-99" type="line"/>
      <point x="116" y="-207" type="line"/>
      <point x="121" y="-207" type="line"/>
      <point x="131" y="-175"/>
      <point x="171" y="-142"/>
      <point x="206" y="-142" type="qcurve" smooth="yes"/>
      <point x="237" y="-142"/>
      <point x="294" y="-167"/>
      <point x="330" y="-219"/>
      <point x="330" y="-260" type="qcurve" smooth="yes"/>
      <point x="330" y="-296"/>
      <point x="298" y="-357"/>
      <point x="229" y="-394"/>
    </contour>
  </outline>
</glyph>
<glyph name="four.subs" format="2">
  <advance width="346"/>
  <outline>
    <contour>
      <point x="188" y="611" type="line"/>
      <point x="188" y="739" type="line"/>
      <point x="182" y="739" type="line"/>
      <point x="92" y="611" type="line"/>
    </contour>
    <contour>
      <point x="279" y="470" type="line"/>
      <point x="188" y="470" type="line"/>
      <point x="188" y="540" type="line"/>
      <point x="18" y="540" type="line"/>
      <point x="18" y="619" type="line"/>
      <point x="169" y="839" type="line"/>
      <point x="279" y="839" type="line"/>
      <point x="279" y="611" type="line"/>
      <point x="327" y="611" type="line"/>
      <point x="327" y="540" type="line"/>
      <point x="279" y="540" type="line"/>
    </contour>
  </outline>
</glyph>
<glyph name="one.subs" format="2">
  <advance width="317"/>
  <outline>
    <contour>
      <point x="240" y="470" type="line"/>
      <point x="146" y="470" type="line"/>
      <point x="146" y="754" type="line"/>
      <point x="66" y="717" type="line"/>
      <point x="66" y="802" type="line"/>
      <point x="141" y="839" type="line"/>
      <point x="240" y="839" type="line"/>
    </contour>
  </outline>
</glyph>
<glyph name="one.sups" format="2">
  <advance width="317"/>
  <outline>
    <contour>
      <point x="240" y="-388" type="line"/>
      <point x="146" y="-388" type="line"/>
      <point x="146" y="-104" type="line"/>
      <point x="66" y="-141" type="line"/>
      <point x="66" y="-56" type="line"/>
      <point x="141" y="-19" type="line"/>
      <point x="240" y="-19" type="line"/>
    </contour>
  </outline>
</glyph>
<glyph name="two.sups" format="2">
  <advance width="347"/>
  <outline>
    <contour>
      <point x="320" y="-388" type="line"/>
      <point x="34" y="-388" type="line"/>
      <point x="34" y="-306" type="line"/>
      <point x="147" y="-219" type="line"/>
      <point x="182" y="-194"/>
      <point x="213" y="-156"/>
      <point x="213" y="-132" type="qcurve" smooth="yes"/>
      <point x="213" y="-92"/>
      <point x="166" y="-92" type="qcurve" smooth="yes"/>
      <point x="118" y="-92"/>
      <point x="106" y="-140" type="qcurve"/>
      <point x="24" y="-109" type="line"/>
      <point x="37" y="-66"/>
      <point x="111" y="-13"/>
      <point x="175" y="-13" type="qcurve" smooth="yes"/>
      <point x="247" y="-13"/>
      <point x="314" y="-79"/>
      <point x="314" y="-126" type="qcurve" smooth="yes"/>
      <point x="314" y="-210"/>
      <point x="204" y="-270" type="qcurve"/>
      <point x="137" y="-311" type="line"/>
      <point x="320" y="-311" type="line"/>
    </contour>
  </outline>
</glyph>
<glyph name="zero.subs" format="2">
  <advance width="371"/>
  <outline>
    <contour>
      <point x="186" y="542" type="qcurve" smooth="yes"/>
      <point x="218" y="542"/>
      <point x="239" y="581"/>
      <point x="239" y="627" type="qcurve" smooth="yes"/>
      <point x="239" y="692" type="line" smooth="yes"/>
      <point x="239" y="733"/>
      <point x="215" y="767"/>
      <point x="186" y="767" type="qcurve" smooth="yes"/>
      <point x="153" y="767"/>
      <point x="132" y="725"/>
      <point x="132" y="683" type="qcurve" smooth="yes"/>
      <point x="132" y="618" type="line" smooth="yes"/>
      <point x="132" y="579"/>
      <point x="154" y="542"/>
    </contour>
    <contour>
      <point x="186" y="464" type="qcurve" smooth="yes"/>
      <point x="29" y="464"/>
      <point x="29" y="655" type="qcurve" smooth="yes"/>
      <point x="29" y="845"/>
      <point x="186" y="845" type="qcurve" smooth="yes"/>
      <point x="343" y="845"/>
      <point x="343" y="655" type="qcurve" smooth="yes"/>
      <point x="343" y="464"/>
    </contour>
  </outline>
</glyph>
